# xmcd CD database file
#
# Track frame offsets:
#	150
#	14859
#	46897
#	68046
#	90559
#	110131
#	143237
#	161343
#	173044
#
# Disc length: 2584 seconds
#
# Revision: 0
# Processed by: cddbd v1.5.1PL0 Copyright (c) Steve Scherf et al.
# Submitted via: CDex 1.51
#
DISCID=760a1609
DTITLE=Low Pass Filter - Sub Jazz
DYEAR=2004
DGENRE=Jazz
TTITLE0=Forgotten
TTITLE1=Leonard
TTITLE2=Tribe
TTITLE3=A bout de souffle
TTITLE4=Meditation N°3
TTITLE5=Clepsydre
TTITLE6=Boa Vista part 1
TTITLE7=Boa Vista part 2
TTITLE8=Mister M
EXTD=YEAR: 2004
EXTT0=
EXTT1=
EXTT2=
EXTT3=
EXTT4=
EXTT5=
EXTT6=
EXTT7=
EXTT8=
PLAYORDER=
